# xmcd CD database file
#
# Track frame offsets:
#	150
#	34083
#	60601
#	77482
#	109599
#	123147
#	161081
#	178530
#	220430
#	238549
#	271184
#
# Disc length: 3950 seconds
#
# Revision: 0
# Processed by: cddbd v1.5.2PL0 Copyright (c) Steve Scherf et al.
# Submitted via: CDex 1.51
#
DISCID=8b0f6c0b
DTITLE=Christian, Hans - Cinema of Dreams
DYEAR=2007
DGENRE=New Age
TTITLE0=Robin Returning
TTITLE1=Sheath of Light
TTITLE2=Crossing Over
TTITLE3=Moon in Pisces
TTITLE4=My Beautiful One
TTITLE5=Serpentine
TTITLE6=Cosmic Sunflower
TTITLE7=In Vitro
TTITLE8=Shadow Light
TTITLE9=Golden Rainbow
TTITLE10=Mist of Mercy
EXTD=YEAR: 2007
EXTT0=
EXTT1=
EXTT2=
EXTT3=
EXTT4=
EXTT5=
EXTT6=
EXTT7=
EXTT8=
EXTT9=
EXTT10=
PLAYORDER=
